General

Format                           : MPEG-4
Format profile                   : Base Media
Codec ID                         : isom
File size                        : 118 MiB
Duration                         : 4mn 37s
Overall bit rate                 : 3 576 Kbps
Encoded date                     : UTC 2012-03-28 15:40:50
Tagged date                      : UTC 2012-03-28 15:40:50

Video
ID                               : 1
Format                           : AVC
Format/Info                      : Advanced Video Codec
Format profile                   : High@L3.0
Format settings, CABAC           : Yes
Format settings, ReFrames        : 2 frames
Codec ID                         : avc1
Codec ID/Info                    : Advanced Video Coding
Duration                         : 4mn 37s
Bit rate mode                    : Variable
Bit rate                         : 3 502 Kbps
Nominal bit rate                 : 3 694 Kbps
Maximum bit rate                 : 7 914 Kbps
Width                            : 720 pixels
Height                           : 480 pixels
Display aspect ratio             : 16:9
Original display aspect ratio    : 16:9
Frame rate mode                  : Constant
Frame rate                       : 23.976 fps
Standard                         : NTSC
Color space                      : YUV
Chroma subsampling               : 4:2:0
Bit depth                        : 8 bits
Scan type                        : Progressive
Bits/(Pixel*Frame)               : 0.423
Stream size                      : 116 MiB (98%)


Audio
ID                               : 2
Format                           : AAC
Format/Info                      : Advanced Audio Codec
Format profile                   : LC
Codec ID                         : 40
Duration                         : 4mn 37s
Bit rate mode                    : Variable
Bit rate                         : 67.7 Kbps
Maximum bit rate                 : 80.1 Kbps
Channel(s)                       : 2 channels
Channel positions                : Front: L R
Sampling rate                    : 44.1 KHz
Compression mode                 : Lossy
Stream size                      : 2.24 MiB (2%)